<svg width="30" height="27" viewBox="0 0 30 27" fill="none" xmlns="http://www.w3.org/2000/svg">
<path fill-rule="evenodd" clip-rule="evenodd" d="M8.67756 3.14024C9.04093 1.35741 10.6278 0.0958252 12.4446 0.0958252H16.8922C18.709 0.0958252 20.2945 1.35741 20.6593 3.14024C20.6995 3.33656 20.8045 3.51364 20.9576 3.643C21.1106 3.77235 21.3028 3.84645 21.503 3.85337H21.5479C23.4573 3.93775 24.9244 4.17183 26.1493 4.97615C26.9209 5.48242 27.5851 6.13294 28.1022 6.89371C28.7459 7.8382 29.029 8.92422 29.1651 10.2362C29.2985 11.5195 29.2985 13.1268 29.2985 15.1628V15.2784C29.2985 17.3144 29.2985 18.923 29.1651 20.205C29.029 21.517 28.7459 22.603 28.1022 23.5489C27.5834 24.3101 26.9198 24.9616 26.1493 25.4664C25.1925 26.0938 24.0943 26.3714 22.7633 26.5035C21.4595 26.6341 19.825 26.6341 17.7482 26.6341H11.5886C9.51182 26.6341 7.87733 26.6341 6.57355 26.5035C5.24255 26.3714 4.14428 26.0952 3.18754 25.4664C2.41685 24.9612 1.75323 24.3092 1.23459 23.5475C0.590871 22.603 0.307796 21.517 0.171702 20.205C0.0383301 18.923 0.0383301 17.3144 0.0383301 15.2784V15.1628C0.0383301 13.1268 0.0383301 11.5195 0.171702 10.2362C0.307796 8.92422 0.590871 7.8382 1.23459 6.89371C1.75323 6.13201 2.41685 5.47996 3.18754 4.97479C4.41238 4.17183 5.87947 3.93775 7.78887 3.85473L7.812 3.85337H7.83378C8.03405 3.84645 8.22617 3.77235 8.37922 3.643C8.53228 3.51364 8.63736 3.33656 8.67756 3.14024ZM12.4446 2.13723C11.5736 2.13723 10.8428 2.74013 10.6781 3.54716C10.4128 4.85366 9.25324 5.88253 7.85828 5.89478C6.02373 5.97644 5.04114 6.20099 4.30623 6.68276C3.76033 7.04099 3.29008 7.50292 2.92216 8.04234C2.54654 8.59352 2.32062 9.29984 2.20086 10.4471C2.0811 11.6121 2.07974 13.1146 2.07974 15.2213C2.07974 17.328 2.07974 18.8291 2.20222 19.9941C2.32062 21.1414 2.54654 21.8477 2.92352 22.4002C3.28825 22.9364 3.75777 23.3992 4.30759 23.7598C4.8751 24.1313 5.60184 24.3559 6.77633 24.4729C7.96579 24.5913 9.49821 24.5927 11.6444 24.5927H17.6924C19.8372 24.5927 21.3697 24.5927 22.5605 24.4729C23.735 24.3559 24.4617 24.1327 25.0292 23.7598C25.579 23.3992 26.0499 22.9364 26.4147 22.3989C26.7903 21.8477 27.0162 21.1414 27.136 19.9941C27.2557 18.8291 27.2571 17.3267 27.2571 15.2213C27.2571 13.1146 27.2571 11.6121 27.1346 10.4471C27.0162 9.29984 26.7903 8.59352 26.4133 8.04234C26.0458 7.5022 25.5755 7.03975 25.0292 6.6814C24.297 6.20099 23.3144 5.97644 21.4772 5.89478C20.0836 5.88117 18.9241 4.85502 18.6587 3.54716C18.5716 3.14469 18.3482 2.78462 18.0264 2.52774C17.7046 2.27086 17.3039 2.13293 16.8922 2.13723H12.4446ZM14.6684 11.6638C13.8563 11.6638 13.0774 11.9864 12.5032 12.5607C11.9289 13.1349 11.6063 13.9138 11.6063 14.7259C11.6063 15.538 11.9289 16.3169 12.5032 16.8911C13.0774 17.4654 13.8563 17.788 14.6684 17.788C15.4805 17.788 16.2594 17.4654 16.8336 16.8911C17.4079 16.3169 17.7305 15.538 17.7305 14.7259C17.7305 13.9138 17.4079 13.1349 16.8336 12.5607C16.2594 11.9864 15.4805 11.6638 14.6684 11.6638ZM9.56489 14.7259C9.56489 13.3724 10.1026 12.0743 11.0597 11.1172C12.0168 10.1601 13.3149 9.62239 14.6684 9.62239C16.0219 9.62239 17.32 10.1601 18.2771 11.1172C19.2342 12.0743 19.7719 13.3724 19.7719 14.7259C19.7719 16.0794 19.2342 17.3775 18.2771 18.3346C17.32 19.2917 16.0219 19.8294 14.6684 19.8294C13.3149 19.8294 12.0168 19.2917 11.0597 18.3346C10.1026 17.3775 9.56489 16.0794 9.56489 14.7259ZM21.8133 10.6431C21.8133 10.3724 21.9209 10.1128 22.1123 9.92134C22.3037 9.72993 22.5633 9.62239 22.834 9.62239H24.195C24.4657 9.62239 24.7253 9.72993 24.9167 9.92134C25.1081 10.1128 25.2157 10.3724 25.2157 10.6431C25.2157 10.9138 25.1081 11.1734 24.9167 11.3648C24.7253 11.5563 24.4657 11.6638 24.195 11.6638H22.834C22.5633 11.6638 22.3037 11.5563 22.1123 11.3648C21.9209 11.1734 21.8133 10.9138 21.8133 10.6431Z" fill="#7F7F7F"/>
</svg>
