<svg width="29" height="29" viewBox="0 0 29 29" fill="none" xmlns="http://www.w3.org/2000/svg">
<path d="M28.0017 12.6638V14.7052C28.0017 21.1207 28.0017 24.3284 26.0079 26.3208C24.0168 28.3146 20.8078 28.3146 14.3923 28.3146C7.97684 28.3146 4.76911 28.3146 2.77533 26.3208C0.782921 24.3297 0.782921 21.1207 0.782921 14.7052C0.782921 8.28974 0.782921 5.08201 2.77533 3.08824C4.77047 1.09583 7.97684 1.09583 14.3923 1.09583H16.4337" stroke="#829DFF" stroke-width="1.38821" stroke-linecap="round"/>
<path d="M7.58768 17.4263L10.0333 14.4921C11.0023 13.3285 11.4868 12.7474 12.1237 12.7474C12.762 12.7474 13.2465 13.3285 14.2154 14.4921L14.5693 14.9167C15.5383 16.0803 16.0228 16.6614 16.661 16.6614C17.298 16.6614 17.7825 16.0803 18.7515 14.9167L21.1971 11.9825" stroke="#829DFF" stroke-width="1.38821" stroke-linecap="round"/>
<path d="M23.919 9.26127C26.1738 9.26127 28.0018 7.43333 28.0018 5.17845C28.0018 2.92358 26.1738 1.09564 23.919 1.09564C21.6641 1.09564 19.8362 2.92358 19.8362 5.17845C19.8362 7.43333 21.6641 9.26127 23.919 9.26127Z" stroke="#829DFF" stroke-width="1.38821"/>
</svg>
